# xmcd CD database file
#
# Track frame offsets:
#	150
#	10270
#	32080
#	53732
#	74447
#	94972
#	119717
#	136905
#	155680
#	176712
#	181622
#	200695
#	222897
#	226980
#
# Disc length: 3247 seconds
#
# Revision: 3
# Processed by: cddbd v1.5.2PL0 Copyright (c) Steve Scherf et al.
# Submitted via: CDex 1.70beta2
#
DISCID=c80cad0e
DTITLE=甲斐よしひろ - HIGHWAY 25 [Disc5]
DYEAR=1999
DGENRE=Rock
TTITLE0=フェアリー (完全犯罪) [Demo]
TTITLE1=野獣
TTITLE2=デッド・ライン
TTITLE3=Weekend Lullaby
TTITLE4=モダン・ラヴ
TTITLE5=電光石火BABY
TTITLE6=不思議な夢 [KAI IN THE SKY MIX]
TTITLE7=トランスレディー [First arrange version]
TTITLE8=顔役 [Previously unissued]
TTITLE9=時の過ぎゆくままに [CM ver.]
TTITLE10=嵐の明日 [Acoustic MIX]
TTITLE11=渇いた街 [Demo]
TTITLE12=ジャックとジル [Demo]
TTITLE13=ブルー・ローズ [Previously unissued]
EXTD=YEAR: 1999
EXTT0=
EXTT1=
EXTT2=
EXTT3=
EXTT4=
EXTT5=
EXTT6=
EXTT7=
EXTT8=
EXTT9=
EXTT10=
EXTT11=
EXTT12=
EXTT13=
PLAYORDER=
